PathFileType	4	(X/Y/Z)	46_2_82_p0_0-605_filt_butterworth.trc
DataRate	CameraRate	NumFrames	NumMarkers	Units	OrigDataRate	OrigDataStartFrame	OrigNumFrames
59.0	59.0	5	27	m	59.0	0	605
Frame#	Time	RHip			RKnee			RAnkle			RBigToe			RSmallToe			RHeel			LHip			LKnee			LAnkle			LBigToe			LSmallToe			LHeel			Neck			Head			Nose			RShoulder			RElbow			RWrist			RThumb			RIndex			RPinky			LShoulder			LElbow			LWrist			LThumb			LIndex			LPinky			
		X1	Y1	Z1	X2	Y2	Z2	X3	Y3	Z3	X4	Y4	Z4	X5	Y5	Z5	X6	Y6	Z6	X7	Y7	Z7	X8	Y8	Z8	X9	Y9	Z9	X10	Y10	Z10	X11	Y11	Z11	X12	Y12	Z12	X13	Y13	Z13	X14	Y14	Z14	X15	Y15	Z15	X16	Y16	Z16	X17	Y17	Z17	X18	Y18	Z18	X19	Y19	Z19	X20	Y20	Z20	X21	Y21	Z21	X22	Y22	Z22	X23	Y23	Z23	X24	Y24	Z24	X25	Y25	Z25	X26	Y26	Z26	X27	Y27	Z27	
0	0.0	0.4153255968715462	0.3878210367528164	0.6603213894219208	0.35710910996740713	0.4529696307188965	1.0863134827160326	0.3338801033097214	0.4837476788682632	1.4716986370798222	0.35706275501958135	0.35184282653013216	1.5190828125471105	0.4187159675704279	0.3778788170015047	1.5171072084952264	0.30421515740433824	0.5620296996719235	1.546308972295473	0.22693717485303933	0.3772337696568694	0.6669967933447528	0.22950703290721952	0.3896530669372418	1.0506302735022586	0.15667136493283368	0.4914413677835061	1.4774150816102205	0.198536207604852	0.30481204157995495	1.4881451478470304	0.1443755157087621	0.3421113881491373	1.4996503464856155	0.1623141181213087	0.5418351199523364	1.5513091970980843	0.33514033390618647	0.3287068835274421	0.07796737510855065	0.37253760607490016	0.28233125902852857	-0.14681107841313867	0.35895910151845684	0.230387049638944	-0.030900515331053084	0.4862325363907255	0.3343128226169802	0.20947572715294158	0.505354725884046	0.3253441627530296	0.4436537895713567	0.4019223289436127	0.15529627567549872	0.5700012472153605	0.31415421279781824	0.11106951492824631	0.5983959639618419	0.29623144351953357	0.1300537682863213	0.644658900322752	0.3330327156315515	0.17274211749087354	0.6849059745462681	0.18501648063601106	0.33862273166107226	0.16555108202377886	0.14592071234615817	0.3128118954557508	0.4268221101579692	0.28882620829826317	0.16401610482321335	0.5515767693588699	0.36019358444377353	0.13976847810755028	0.603222982404475	0.3643024148308266	0.14187168260440888	0.6330927026466092	0.3407868927480861	0.13516604895625683	0.6367684546512625
1	0.0169491525423728	0.4152289550000151	0.3880372833124991	0.6584743475574711	0.36054523157753493	0.44419934891731605	1.082368767508655	0.3338620251149028	0.48383230672126754	1.4716343854028102	0.35627568017946637	0.34811074892219557	1.5162117794162941	0.4185758151255927	0.37716124839291937	1.5167812017627853	0.30363652632036126	0.5627443127874979	1.5421522827767742	0.22653856942608674	0.37564251764390855	0.6673909196327356	0.2291034808637919	0.39057196103055164	1.0480710596091247	0.157125764150621	0.49223217029285793	1.47170629368642	0.19912612470233204	0.3130362407078896	1.4925099206363863	0.14499491955777563	0.34124244231219175	1.4984224612349726	0.15949759208811415	0.5382132128083941	1.5460778344097679	0.33513668252987044	0.32867074187150447	0.07797685259721412	0.37257270152822375	0.28229532562356774	-0.14680654493816955	0.3589817792949571	0.23022261995010745	-0.030187556293399868	0.48461011391004094	0.3266584773149232	0.20720272058681682	0.5073153519955775	0.33216971134769396	0.4454525786998961	0.4030556233058771	0.16234083117040468	0.5715197288114392	0.31390494834895605	0.1117362231183759	0.5993231045615676	0.3019964166141688	0.12416642803319816	0.6436550894430028	0.3335648606525397	0.1767290972923594	0.687201620056087	0.18664302814287337	0.33900013190229467	0.1654526651464382	0.14570427488194307	0.31179066860885324	0.42424773710448105	0.2869400798589221	0.1683639394198133	0.5528122395457656	0.35984091356974857	0.13955903968764127	0.6027667635862188	0.3620359625100992	0.14378533121488132	0.6337691859408491	0.3405176131167717	0.13968622958961308	0.6378406101509315
2	0.0338983050847457	0.4152397137795589	0.38826738165840813	0.6587167172210925	0.36256377665409567	0.43901664097787385	1.0799817455320584	0.33384783669398566	0.4838833704032058	1.4716007894324123	0.3557417543380044	0.3468370879121645	1.5136865936853794	0.41851619061772655	0.37683674082799984	1.51661160147473	0.3033221890078	0.5632634965509129	1.5399544011113717	0.2265367562221896	0.3763105257378959	0.6679520217148351	0.22856337977838784	0.39097283705582175	1.0467597926817505	0.15741005648931594	0.49266144414078245	1.468271552171333	0.19940328764680454	0.3180097343709201	1.4950579694643882	0.14641268109262093	0.33864968002192797	1.4954620939130803	0.15772232969751462	0.5361521311663185	1.5423205478686421	0.3351412372285735	0.3286641535157655	0.07798851376107753	0.3726218047821157	0.28223727203536186	-0.1468028535191402	0.35895787353321085	0.2300365669120662	-0.030175753898611695	0.48369225454759857	0.32218388293441663	0.20505536861237672	0.5084664774272727	0.336098256449055	0.4475267085248006	0.4028166062690745	0.1688337316224907	0.5730856380511441	0.31413678326424815	0.11328896919518465	0.6000618638047687	0.30553494259646896	0.12240643194284076	0.6428304548199776	0.3319939005632467	0.18055880253057147	0.6884099880537405	0.1882078763009464	0.33945686503840267	0.1653549212408779	0.14547964653890608	0.3115017081924288	0.42272680062300594	0.2851472245041077	0.1726705643541705	0.5539975025585135	0.3598021276847783	0.13974940755708318	0.6017994846921083	0.36105087849462814	0.14544920840863657	0.6343062067566372	0.34081356710307636	0.1437482500750956	0.6383182440684444
3	0.0508474576271186	0.4156190795039555	0.389320825650727	0.6608002648089588	0.36312068622690175	0.43760051626645424	1.0792842688170443	0.33383994705876757	0.48389658004732783	1.4716023195027137	0.35556627417636627	0.3486449525994492	1.5121107291671123	0.4185527994458472	0.3768862068122695	1.5165860287514215	0.3033185181116703	0.5636626728966115	1.5400639933138338	0.22681798432802766	0.3781470822737515	0.6690997167174141	0.2278756468712632	0.3907635600802392	1.0460844477114013	0.15751471607158232	0.49269838954769696	1.467258198783649	0.19942255010813792	0.31928804229518115	1.4956678356106061	0.14837554462990019	0.33482940761957103	1.4913065914382293	0.15722367743263585	0.5359204870142943	1.5413081688440178	0.3351552323925438	0.3286804673675148	0.07799869090577688	0.3726806874841911	0.2821734520556765	-0.14671417495992517	0.35891088401402177	0.2297831993419008	-0.030541383202325224	0.4835157562156832	0.3210966232632847	0.20309967456529668	0.5087622848140034	0.33701859850502414	0.44918608124053594	0.40087873778618915	0.17529210437032788	0.5751445091709187	0.3148638675990222	0.11624017933337027	0.6014854378804493	0.30658558595791063	0.1238851391091413	0.641771538064094	0.327908281139707	0.1846766139816624	0.6880897531064663	0.18929839512810084	0.3398213856310973	0.16527148422452054	0.14530008578239498	0.31202006530194143	0.42233703668406086	0.2839086340478299	0.17582732458132128	0.5547891381521678	0.3599819123640526	0.14114131808884292	0.6012761144319768	0.3613811036706694	0.1470930452444096	0.6347541884993398	0.34097941539474536	0.14531570459981075	0.638032496563467
4	0.0677966101694915	0.41652699384705616	0.3922435234621347	0.6628925290042795	0.3630824867602122	0.4377722704147123	1.0795580690928617	0.3338365570417041	0.48389154981336524	1.4716284385117417	0.35550083445464836	0.3511337083184327	1.511238212722394	0.41862738795442334	0.37700299378384977	1.516590861191234	0.30344983613338866	0.5639749582985691	1.5411537768485974	0.2270336821141555	0.3792219484723994	0.6709894972689934	0.22721341657583788	0.39030612268217774	1.0448721914930497	0.15752682143781002	0.4925741917507636	1.4674072671147458	0.19939955426992234	0.3185620282410476	1.495377347994446	0.14990373988409267	0.3317814201731425	1.4881605807126481	0.1575047920929073	0.5365762726343115	1.5428423998566405	0.33517309869814194	0.32869825187710544	0.07800117065229818	0.3727402495297077	0.2821528032585037	-0.14640132944185913	0.3589470814085679	0.2297270139591024	-0.030524388677433817	0.48365790323510965	0.3215683163946875	0.20172392427969554	0.5086706592213907	0.3366257954559811	0.4497936682961027	0.3975975820748743	0.18274762197747857	0.5782837232904333	0.3157150863325235	0.1197605620056782	0.6047482159203293	0.30532671021263497	0.12786187526750586	0.6417707091640961	0.32225528285431637	0.19064102749147613	0.6875236371948987	0.18971107378874008	0.3399617029274883	0.1652159165050461	0.14522583123006827	0.31273237465776044	0.4224520828457046	0.28340809896377833	0.17691412952649693	0.5549352560021139	0.35977540158629845	0.14427268255417297	0.6028805802343997	0.3614708463007973	0.14924030542523026	0.6353354178280063	0.3397669961566334	0.14425731793441118	0.6377686754733083
